<svg xmlns="http://www.w3.org/2000/svg" xmlns:xlink="http://www.w3.org/1999/xlink" id="Layer_1" x="0px" y="0px" viewBox="0 0 512 512" style="enable-background:new 0 0 512 512;" xml:space="preserve"><g>	<g>		<path d="M454.98,27.744L354.407,0.315c-2.741-0.732-5.687-0.179-7.955,1.554c-2.264,1.732-3.594,4.42-3.594,7.268v18.286H242.286   H59.426c-5.049,0-9.143,4.089-9.143,9.143v438.862c0,5.054,4.094,9.143,9.143,9.143h27.429v18.286   c0,5.054,4.094,9.143,9.143,9.143h36.572c5.049,0,9.143-4.089,9.143-9.143v-18.286h100.573h109.716h18.286v18.286   c0,5.054,4.094,9.143,9.143,9.143h36.572c5.049,0,9.143-4.089,9.143-9.143v-18.286h27.429c5.049,0,9.143-4.089,9.143-9.143V36.566   C461.717,32.441,458.958,28.833,454.98,27.744z M123.427,493.714h-18.286v-9.143h18.286V493.714z M233.143,466.285H132.57H95.998   H68.569V45.709h164.573V466.285z M342.858,466.285h-91.43v-64.001h91.43V466.285z M342.858,383.998h-91.43V45.709h91.43V383.998z    M406.859,493.714h-18.286v-9.143h18.286V493.714z M443.431,466.285h-27.429H379.43h-18.286v-64.001v-18.286V36.566V21.11   l82.287,22.438V466.285z"></path>	</g></g><g>	<g>		<path d="M397.716,219.425H379.43c-5.049,0-9.143,4.089-9.143,9.143c0,5.054,4.094,9.143,9.143,9.143h9.143v28.554   c0,5.054,4.094,9.143,9.143,9.143s9.143-4.089,9.143-9.143v-37.697C406.859,223.514,402.765,219.425,397.716,219.425z"></path>	</g></g><g>	<g>		<path d="M205.714,219.425h-27.429c-5.049,0-9.143,4.089-9.143,9.143v37.697c0,5.054,4.094,9.143,9.143,9.143   s9.143-4.089,9.143-9.143v-28.554h18.286c5.049,0,9.143-4.089,9.143-9.143C214.857,223.514,210.763,219.425,205.714,219.425z"></path>	</g></g><g>	<g>		<path d="M324.572,310.855h-54.858c-5.049,0-9.143,4.089-9.143,9.143v45.715c0,5.054,4.094,9.143,9.143,9.143h54.858   c5.049,0,9.143-4.089,9.143-9.143v-45.715C333.715,314.944,329.621,310.855,324.572,310.855z M315.429,356.569h-36.572v-27.429   h36.572V356.569z"></path>	</g></g><g></g><g></g><g></g><g></g><g></g><g></g><g></g><g></g><g></g><g></g><g></g><g></g><g></g><g></g><g></g></svg>