<svg xmlns="http://www.w3.org/2000/svg" xmlns:xlink="http://www.w3.org/1999/xlink" viewBox="0 0 386.812 386.812"><g><path d="m356.781,107.786h-248.751c-4.142,0-7.5,3.358-7.5,7.5v28.5h-45.5c-17.92,0-32.5,14.58-32.5,32.5v30.21c0,42.711 34.749,77.46 77.46,77.46h3.972c6.547,24.671 22.15,46.45 44.03,60.473v34.882c0,4.142 3.358,7.5 7.5,7.5h153.828c4.143,0 7.5-3.358 7.5-7.5v-34.882c29.381-18.834 47.461-51.655 47.461-86.689v-142.454c0-4.142-3.357-7.5-7.5-7.5zm-256.79,161.17c-34.441,0-62.46-28.02-62.46-62.46v-30.21c0-9.649 7.851-17.5 17.5-17.5h45.5v98.954c0,3.77 0.222,7.512 0.632,11.216h-1.172zm127.415-87.17c0-2.757 2.243-5 5-5s5,2.243 5,5-2.243,5-5,5-5-2.243-5-5zm121.875,75.954c0,31.173-16.758,60.296-43.734,76.004-2.308,1.343-3.727,3.812-3.727,6.481v31.586h-31.284v-75.419l18.855-18.854c2.49,1.115 5.24,1.749 8.14,1.749 11.028,0 20-8.972 20-20 0-11.028-8.972-20-20-20s-20,8.972-20,20c0,2.632 0.524,5.141 1.452,7.445l-21.251,21.251c-1.406,1.406-2.196,3.314-2.196,5.303v78.525h-15.63v-171.497c7.32-2.974 12.5-10.153 12.5-18.528 0-11.028-8.972-20-20-20s-20,8.972-20,20c0,8.375 5.18,15.553 12.5,18.528v171.498h-15.63v-104.876c0-1.989-0.79-3.897-2.196-5.303l-21.251-21.251c0.928-2.303 1.451-4.811 1.451-7.442 0-11.028-8.972-20-20-20s-20,8.972-20,20 8.972,20 20,20c2.901,0 5.652-0.635 8.143-1.75l18.853,18.853v101.769h-31.284v-31.586c0-2.669-1.419-5.138-3.726-6.481-26.977-15.708-43.736-44.831-43.736-76.004v-134.955h233.751v134.954zm-56.75,1.547c0-2.757 2.243-5 5-5s5,2.243 5,5-2.243,5-5,5-5-2.243-5-5zm-125.251-21.347c-2.757,0-5-2.243-5-5s2.243-5 5-5 5,2.243 5,5-2.243,5-5,5z"></path><path d="m304.066,51.786c0,4.756-1.369,6.708-3.639,9.941-1.218,1.736-2.599,3.704-3.768,6.192-1.761,3.75-0.148,8.216 3.602,9.977 1.03,0.484 2.114,0.713 3.183,0.713 2.817,0 5.517-1.595 6.794-4.314 0.616-1.312 1.475-2.536 2.468-3.952 2.685-3.825 6.36-9.063 6.36-18.557 0-9.494-3.677-14.733-6.36-18.558-2.27-3.234-3.64-5.186-3.64-9.942 0-4.754 1.369-6.705 3.639-9.938 0.385-0.548 0.77-1.097 1.146-1.657 2.314-3.435 1.406-8.096-2.029-10.411-3.435-2.314-8.097-1.406-10.41,2.03-0.324,0.48-0.654,0.95-0.984,1.421-2.685,3.825-6.361,9.063-6.361,18.555 0,9.494 3.677,14.733 6.36,18.558 2.268,3.234 3.639,5.187 3.639,9.942z"></path><path d="m229.906,51.786c0,4.756-1.37,6.708-3.64,9.942-1.218,1.736-2.599,3.703-3.767,6.191-1.762,3.749-0.149,8.216 3.6,9.977 1.03,0.484 2.115,0.713 3.184,0.713 2.816,0 5.517-1.595 6.793-4.313 0.616-1.312 1.475-2.535 2.469-3.951 2.685-3.826 6.361-9.064 6.361-18.559s-3.677-14.733-6.36-18.558c-2.27-3.234-3.64-5.186-3.64-9.942 0-4.754 1.37-6.706 3.639-9.939 0.385-0.548 0.769-1.096 1.146-1.656 2.314-3.435 1.406-8.096-2.029-10.411-3.435-2.314-8.096-1.406-10.41,2.03-0.323,0.479-0.654,0.95-0.984,1.42-2.684,3.825-6.36,9.063-6.36,18.556 0,9.494 3.677,14.733 6.36,18.558 2.268,3.234 3.638,5.187 3.638,9.942z"></path><path d="m155.746,51.786c0,4.756-1.37,6.708-3.639,9.941-1.218,1.736-2.599,3.704-3.767,6.192-1.761,3.749-0.149,8.216 3.601,9.977 1.03,0.484 2.115,0.713 3.183,0.713 2.817,0 5.517-1.595 6.793-4.313 0.616-1.312 1.475-2.536 2.469-3.952 2.684-3.825 6.36-9.064 6.36-18.558 0-9.494-3.676-14.733-6.361-18.558-2.27-3.234-3.639-5.186-3.639-9.942 0-4.755 1.37-6.707 3.639-9.939 0.385-0.548 0.769-1.096 1.146-1.655 2.314-3.435 1.406-8.096-2.029-10.411-3.434-2.314-8.095-1.406-10.411,2.029-0.323,0.479-0.653,0.949-0.983,1.419-2.685,3.825-6.362,9.063-6.362,18.557 0,9.494 3.676,14.733 6.361,18.558 2.27,3.234 3.639,5.187 3.639,9.942z"></path></g></svg>