<svg xmlns="http://www.w3.org/2000/svg" xmlns:xlink="http://www.w3.org/1999/xlink" id="Layer_1" x="0px" y="0px" viewBox="0 0 64 64" xml:space="preserve"><g id="Medical_2_">	<path d="M57.8172989,17H42v-5.8086004C42,8.8799,40.2240982,7,38.0410004,7H26.0078011  c-1.0688992,0-2.1113987,0.4619002-2.862299,1.2705002c-0.7388,0.7987995-1.1455002,1.8555002-1.1455002,2.9756002V17h-15.8174  c-3.4091997,0-6.1826,2.7567997-6.1826,6.1455002v27.7089996C0.0000016,54.2431984,2.7734017,57,6.1826015,57h51.634697  C61.2264977,57,64,54.2431984,64,50.8544998V23.1455002C64,19.7567997,61.2264977,17,57.8172989,17z M24.0000019,11.2461004  c0-0.6064005,0.2236004-1.1963005,0.612299-1.6162004C24.9897022,9.2236004,25.485302,9,26.0078011,9h12.0331993  C39.1210976,9,40,9.9834003,40,11.1913996V17H24.0000019V11.2461004z M62,50.8544998C62,53.1405983,60.123497,55,57.8172989,55  H6.1826015c-2.3061998,0-4.1826-1.8594017-4.1826-4.1455002V23.1455002c0-2.2861004,1.8764-4.1455002,4.1826-4.1455002h51.634697  C60.123497,19,62,20.8593998,62,23.1455002V50.8544998z"></path>	<path d="M38,37h-4.9986v-5c0-0.5527-0.4476967-1-1-1c-0.5521984,0-0.9999981,0.4473-0.9999981,1v5h-5c-0.5522003,0-1,0.4473-1,1  s0.4477997,1,1,1h5v5c0,0.5527,0.4477997,1,0.9999981,1c0.5523033,0,1-0.4473,1-1v-5H38c0.5522003,0,1-0.4473,1-1  S38.5522003,37,38,37z"></path></g><g></g><g></g><g></g><g></g><g></g><g></g><g></g><g></g><g></g><g></g><g></g><g></g><g></g><g></g><g></g></svg>