<svg xmlns="http://www.w3.org/2000/svg" xmlns:xlink="http://www.w3.org/1999/xlink" id="Layer_1" x="0px" y="0px" viewBox="0 0 512 512" style="enable-background:new 0 0 512 512;" xml:space="preserve"><g>	<g>		<g>			<polygon points="47.837,184.843 59.505,179.009 52.495,164.991 32.163,175.157 32.163,196.001 47.837,196.001    "></polygon>			<polygon points="91.223,164.187 257.631,91.836 262.37,91.836 428.777,164.187 444.679,171.621 451.317,157.42 435.317,149.943     265.63,76.163 254.369,76.163 84.877,149.856 68.684,157.42 75.322,171.621    "></polygon>			<polygon points="472.164,196.001 487.837,196.001 487.837,175.157 467.505,164.991 460.496,179.009 472.164,184.843    "></polygon>			<path d="M136.164,158.832v37.005h247.674v-37.005L265.61,108.163h-11.217L136.164,158.832z M176.163,180.163h-24.327v-10.996    l24.327-10.425V180.163z M224.163,180.163h-32.326v-28.138l32.326-13.855V180.163z M343.837,158.742l24.327,10.425v10.996    h-24.327V158.742z M295.837,138.171l32.326,13.855v28.138h-32.326V138.171z M262.391,123.837l17.772,7.616v48.71h-40.326v-48.71    l17.772-7.616H262.391z"></path>			<rect x="104.167" y="292.001" width="15.674" height="72.001"></rect>			<rect x="400.16" y="292.001" width="15.674" height="72.001"></rect>			<path d="M487.837,420.164V204h-15.674v216.163h-24.327v-160h-70.229l-112-48.001h-11.217l-112,48.001H72.163v160H47.837V204    H32.163v216.163H0v15.674h512v-15.674H487.837z M136.164,420.164H87.837V275.837h48.326V420.164z M200.163,420.164h-8.326    v-16.327h8.326V420.164z M304.163,420.164h-88.326v-16.327h88.326V420.164z M304.163,388.163h-88.326v-8.327h88.326V388.163z     M336.163,420.164h-16.327v-16.327h16.327V420.164z M368.164,420.164h-16.327v-16.327H360v-15.674h-40.163v-8.327H344v-15.674    H176v15.674h24.163v8.327h-8.326V388h-15.674v0.163h-16.164v15.674h16.164v16.327h-24.327V273.167l105.772-45.331h4.783    l105.772,45.331V420.164z M432.163,420.164h-48.326V275.837h48.326V420.164z"></path>		</g>	</g></g><g></g><g></g><g></g><g></g><g></g><g></g><g></g><g></g><g></g><g></g><g></g><g></g><g></g><g></g><g></g></svg>