<svg xmlns="http://www.w3.org/2000/svg" xmlns:xlink="http://www.w3.org/1999/xlink" id="Capa_1" x="0px" y="0px" viewBox="0 0 197.336 197.336" style="enable-background:new 0 0 197.336 197.336;" xml:space="preserve"><g>	<path d="M100.482,127.58c-12.072,0-21.894,9.821-21.894,21.894s9.821,21.894,21.894,21.894s21.894-9.821,21.894-21.894  S112.554,127.58,100.482,127.58z M100.482,159.367c-5.455,0-9.894-4.438-9.894-9.894s4.438-9.894,9.894-9.894  s9.894,4.438,9.894,9.894S105.937,159.367,100.482,159.367z"></path>	<path d="M100.482,25.969c-38.874,0-75.932,18.691-99.197,50.014c-1.942,2.614-1.693,6.366,0.821,8.436  c1.127,0.929,2.479,1.376,3.818,1.376c1.839,0,3.654-0.843,4.831-2.435c21-28.422,54.544-45.391,89.728-45.391  c33.306,0,65.141,15.206,86.259,40.938c2.014,2.455,5.615,2.869,8.168,0.982l0,0c2.778-2.053,3.236-6.007,1.042-8.675  C172.566,42.773,137.34,25.969,100.482,25.969z"></path>	<path d="M100.482,59.188c-30.801,0-59.285,15.467-76.195,41.375c-1.811,2.775-1.03,6.493,1.745,8.304  c2.773,1.812,6.493,1.031,8.304-1.745c14.686-22.5,39.414-35.934,66.146-35.934s51.46,13.433,66.146,35.934  c1.151,1.763,3.071,2.721,5.03,2.721c1.125,0,2.262-0.315,3.274-0.976c2.775-1.811,3.556-5.529,1.745-8.304  C159.767,74.655,131.282,59.188,100.482,59.188z"></path>	<path d="M100.482,90.416c-22.669,0-43.752,13.202-53.685,33.58c-1.207,2.414-0.65,5.355,1.356,7.161  c2.462,2.216,6.256,2.017,8.474-0.446c0.468-0.52,0.828-1.1,1.083-1.711c8.023-16.161,24.773-26.584,42.772-26.584  c17.979,0,34.714,10.402,42.773,26.585c0.254,0.611,0.614,1.189,1.082,1.709c1.185,1.316,2.82,1.986,4.462,1.986  c1.43,0,2.865-0.508,4.012-1.54c1.99-1.791,2.556-4.7,1.383-7.106C144.234,103.618,123.151,90.416,100.482,90.416z"></path></g><g></g><g></g><g></g><g></g><g></g><g></g><g></g><g></g><g></g><g></g><g></g><g></g><g></g><g></g><g></g></svg>